<?xml version="1.0" encoding="UTF-8"?>
<mxfile host="app.diagrams.net" modified="2022-10-08T15:59:20.433Z" agent="5.0.1" etag="uS6_N4R-bW69q_w4Y6I" version="20.1.0" type="google">
  <diagram id="9c37d917-d421-64ba-e524-1a48c24b409b" name="Page-1">
    <mxGraphModel dx="1206" dy="764" grid="1" gridSize="10" guides="1" tooltips="1" connect="1" arrows="1" fold="1" page="1" pageScale="1" pageWidth="850" pageHeight="1100" math="0" shadow="0">
      <root>
        <mxCell id="0"/>
        <mxCell id="1" parent="0"/>
        <mxCell id="3" value="TRIO O ESCALERA&lt;br&gt;Zharik Natalia Mahacha&lt;br&gt;1. Seudo lenguaje a mano y en papel, con letra clara y legible." style="text;html=1;strokeColor=none;fillColor=none;align=center;verticalAlign=middle;whiteSpace=wrap;rounded=0;" vertex="1" parent="1">
          <mxGeometry x="10" y="10" width="380" height="60" as="geometry"/>
        </mxCell>
        <mxCell id="4" value="2. Ordenar los cartas en una lista de forma ascendente" style="text;html=1;strokeColor=none;fillColor=none;align=left;verticalAlign=middle;whiteSpace=wrap;rounded=0;" vertex="1" parent="1">
          <mxGeometry x="10" y="80" width="380" height="20" as="geometry"/>
        </mxCell>
        <mxCell id="5" value="1. Repartir las cartas de manera aleatoria" style="text;html=1;strokeColor=none;fillColor=none;align=left;verticalAlign=middle;whiteSpace=wrap;rounded=0;" vertex="1" parent="1">
          <mxGeometry x="10" y="50" width="380" height="20" as="geometry"/>
        </mxCell>
        <mxCell id="6" value="¿Es trío o escalera?" style="rhombus;html=1;strokeColor=none;fillColor=none;align=center;verticalAlign=middle;whiteSpace=wrap;rounded=0;" vertex="1" parent="1">
          <mxGeometry x="150" y="150" width="80" height="40" as="geometry"/>
        </mxCell>
        <mxCell id="7" value="Sí" style="text;html=1;strokeColor=none;fillColor=none;align=center;verticalAlign=middle;whiteSpace=wrap;rounded=0;" vertex="1" parent="1">
          <mxGeometry x="170" y="190" width="20" height="20" as="geometry"/>
        </mxCell>
        <mxCell id="8" value="No" style="text;html=1;strokeColor=none;fillColor=none;align=center;verticalAlign=middle;whiteSpace=wrap;rounded=0;" vertex="1" parent="1">
          <mxGeometry x="230" y="190" width="20" height="20" as="geometry"/>
        </mxCell>
        <mxCell id="9" value="¿La carta más baja y las siguientes forman escalera?" style="rhombus;html=1;strokeColor=none;fillColor=none;align=center;verticalAlign=middle;whiteSpace=wrap;rounded=0;" vertex="1" parent="1">
          <mxGeometry x="250" y="150" width="80" height="40" as="geometry"/>
        </mxCell>
        <mxCell id="10" value="Sí" style="text;html=1;strokeColor=none;fillColor=none;align=center;verticalAlign=middle;whiteSpace=wrap;rounded=0;" vertex="1" parent="1">
          <mxGeometry x="270" y="190" width="20" height="20" as="geometry"/>
        </mxCell>
        <mxCell id="11" value="No" style="text;html=1;strokeColor=none;fillColor=none;align=center;verticalAlign=middle;whiteSpace=wrap;rounded=0;" vertex="1" parent="1">
          <mxGeometry x="330" y="190" width="20" height="20" as="geometry"/>
        </mxCell>
        <mxCell id="12" value="¿Acepta el intercambio?" style="rhombus;html=1;strokeColor=none;fillColor=none;align=center;verticalAlign=middle;whiteSpace=wrap;rounded=0;" vertex="1" parent="1">
          <mxGeometry x="350" y="150" width="80" height="40" as="geometry"/>
        </mxCell>
        <mxCell id="13" value="Sí" style="text;html=1;strokeColor=none;fillColor=none;align=center;verticalAlign=middle;whiteSpace=wrap;rounded=0;" vertex="1" parent="1">
          <mxGeometry x="370" y="190" width="20" height="20" as="geometry"/>
        </mxCell>
        <mxCell id="14" value="No" style="text;html=1;strokeColor=none;fillColor=none;align=center;verticalAlign=middle;whiteSpace=wrap;rounded=0;" vertex="1" parent="1">
          <mxGeometry x="430" y="190" width="20" height="20" as="geometry"/>
        </mxCell>
        <mxCell id="15" value="¿Es trío o escalera?" style="rhombus;html=1;strokeColor=none;fillColor=none;align=center;verticalAlign=middle;whiteSpace=wrap;rounded=0;" vertex="1" parent="1">
          <mxGeometry x="450" y="150" width="80" height="40" as="geometry"/>
        </mxCell>
        <mxCell id="16" value="Sí" style="text;html=1;strokeColor=none;fillColor=none;align=center;verticalAlign=middle;whiteSpace=wrap;rounded=0;" vertex="1" parent="1">
          <mxGeometry x="470" y=" 190" width="20" height="20" as="geometry"/>
        </mxCell>
        <mxCell id="17" value="No" style="text;html=1;strokeColor=none;fillColor=none;align=center;verticalAlign=middle;whiteSpace=wrap;rounded=0;" vertex="1" parent="1">
          <mxGeometry x="530" y="190" width="20" height="20" as="geometry"/>
        </mxCell>
        <mxCell id="18" value="¿Quieres jugar una nueva partida?" style="rhombus;html=1;strokeColor=none;fillColor=none;align=center;verticalAlign=middle;whiteSpace=wrap;rounded=0;" vertex="1" parent="1">
          <mxGeometry x="550" y="150" width="80" height="40" as="geometry"/>
        </mxCell>
        <mxCell id="19" value="Sí" style="text;html=1;strokeColor=none;fillColor=none;align=center;verticalAlign=middle;whiteSpace=wrap;rounded=0;" vertex="1" parent="1">
          <mxGeometry x="570" y="190" width="20" height="20" as="geometry"/>
        </mxCell>
        <mxCell id="20" value="No" style="text;html=1;strokeColor=none;fillColor=none;align=center;verticalAlign=middle;whiteSpace=wrap;rounded=0;" vertex="1" parent="1">
          <mxGeometry x="630" y="190" width="20" height="20" as="geometry"/>
        </mxCell>
        <mxCell id="21" value="Gana" style="text;html=1;strokeColor=none;fillColor=none;align=center;verticalAlign=middle;whiteSpace=wrap;rounded=0;" vertex="1" parent="1">
          <mxGeometry x="650" y="150" width="40" height="20" as="geometry"/>
        </mxCell>
        <mxCell id="22" value="Pierde" style="text;html=1;strokeColor=none;fillColor=none;align=center;verticalAlign=middle;whiteSpace=wrap;rounded=0;" vertex="1" parent="1">
          <mxGeometry x="700" y="150" width="40" height="20" as="geometry"/>
        </mxCell>
        <mxCell id="23" value="Fin del juego" style="text;html=1;strokeColor=none;fillColor=none;align=center;verticalAlign=middle;whiteSpace=wrap;rounded=0;" vertex="1" parent="1">
          <mxGeometry x="750" y="150" width="60" height="20" as="geometry"/>
        </mxCell>
        <mxCell id="24" value="Repartir las 4 cartas" style="rectangle;html=1;strokeColor=none;fillColor=none;align=center;verticalAlign=middle;whiteSpace=wrap;rounded=0;" vertex="1" parent="1">
          <mxGeometry x="10" y="110" width="80" height="40" as="geometry"/>
        </mxCell>
        <mxCell id="25" value="Ordenar cartas" style="rectangle;html=1;strokeColor=none;fillColor=none;align=center;verticalAlign=middle;whiteSpace=wrap;rounded=0;" vertex="1" parent="1">
          <mxGeometry x="10" y="160" width="80" height="40" as="geometry"/>
        </mxCell>
        <mxCell id="26" value="Intercambio de cartas" style="rectangle;html=1;strokeColor=none;fillColor=none;align=center;verticalAlign=middle;whiteSpace=wrap;rounded=0;" vertex="1" parent="1">
          <mxGeometry x="350" y="110" width="80" height="40" as="geometry"/>
        </mxCell>
        <mxCell id="27" value="Cambiar una carta" style="rectangle;html=1;strokeColor=none;fillColor=none;align=center;verticalAlign=middle;whiteSpace=wrap;rounded=0;" vertex="1" parent="1">
          <mxGeometry x="370" y="160" width="80" height="40" as="geometry"/>
        </mxCell>
        <mxCell id="28" edge="1" parent="1" source="6" target="7">
          <mxGeometry relative="1" as="geometry"/>
        </mxCell>
        <mxCell id="29" edge="1" parent="1" source="6" target="8">
          <mxGeometry relative="1" as="geometry"/>
        </mxCell>
        <mxCell id="30" edge="1" parent="1" source="9" target="10">
          <mxGeometry relative="1" as="geometry"/>
        </mxCell>
        <mxCell id="31" edge="1" parent="1" source="9" target="11">
          <mxGeometry relative="1" as="geometry"/>
        </mxCell>
        <mxCell id="32" edge="1" parent="1" source="12" target="13">
          <mxGeometry relative="1" as="geometry"/>
        </mxCell>
        <mxCell id="33" edge="1" parent="1" source="12" target="14">
          <mxGeometry relative="1" as="geometry"/>
        </mxCell>
        <mxCell id="34" edge="1" parent="1" source="15" target="16">
          <mxGeometry relative="1" as="geometry"/>
        </mxCell>
        <mxCell id="35" edge="1" parent="1" source="15" target="17">
          <mxGeometry relative="1" as="geometry"/>
        </mxCell>
        <mxCell id="36" edge="1" parent="1" source="18" target="19">
          <mxGeometry relative="1" as="geometry"/>
        </mxCell>
        <mxCell id="37" edge="1" parent="1" source="18" target="20">
          <mxGeometry relative="1" as="geometry"/>
        </mxCell>
        <mxCell id="38" edge="1" parent="1" source="24" target="25">
          <mxGeometry relative="1" as="geometry"/>
        </mxCell>
        <mxCell id="39" edge="1" parent="1" source="25" target="6">
          <mxGeometry relative="1" as="geometry"/>
        </mxCell>
        <mxCell id="40" edge="1" parent="1" source="26" target="12">
          <mxGeometry relative="1" as="geometry"/>
        </mxCell>
        <mxCell id="41" edge="1" parent="1" source="27" target="24">
          <mxGeometry relative="1" as="geometry"/>
        </mxCell>
        <mxCell id="42" edge="1" parent="1" source="16" target="21">
          <mxGeometry relative="1" as="geometry"/>
        </mxCell>
        <mxCell id="43" edge="1" parent="1" source="17" target="15">
          <mxGeometry relative="1" as="geometry"/>
        </mxCell>
        <mxCell id="44" edge="1" parent="1" source="19" target="24">
          <mxGeometry relative="1" as="geometry"/>
        </mxCell>
        <mxCell id="45" edge="1" parent="1" source="20" target="23">
          <mxGeometry relative="1" as="geometry"/>
        </mxCell>
      </root>
    </mxGraphModel>
  </diagram>
</mxfile>